<svg xmlns="http://www.w3.org/2000/svg" viewBox="0 0 1600 900" role="img" aria-label="Montenegro Treasure Hunt - obala, planine i kompas">
<defs>
<linearGradient id="sky" x1="0" y1="0" x2="1" y2="1"><stop stop-color="#0d3b49"/><stop offset=".55" stop-color="#071d28"/><stop offset="1" stop-color="#041017"/></linearGradient>
<linearGradient id="sea" x1="0" y1="0" x2="0" y2="1"><stop stop-color="#17677a"/><stop offset="1" stop-color="#071922"/></linearGradient>
<radialGradient id="sun"><stop stop-color="#ffe7a2"/><stop offset=".3" stop-color="#d7a955" stop-opacity=".75"/><stop offset="1" stop-color="#d7a955" stop-opacity="0"/></radialGradient>
<filter id="glow"><feGaussianBlur stdDeviation="12"/></filter>
</defs>
<rect width="1600" height="900" fill="url(#sky)"/><circle cx="1250" cy="180" r="170" fill="url(#sun)"/>
<path d="M0 495L130 420l115 36 118-143 112 113 106-216 146 221 107-78 142 132 133-75 153 103 158-19v406H0z" fill="#071820"/>
<path d="M0 585c234-53 424-32 645 31s436 94 955-10v294H0z" fill="url(#sea)"/>
<path d="M0 640c218-35 430-10 648 40 220 51 493 56 952-22" stroke="#8fc8cf" stroke-opacity=".18" stroke-width="5" fill="none"/>
<g transform="translate(1075 340)" opacity=".93"><circle cx="160" cy="160" r="126" fill="#082630" stroke="#d7a955" stroke-width="4"/><circle cx="160" cy="160" r="99" fill="none" stroke="#f2dfae" stroke-opacity=".45"/><path d="M160 43l28 89 89 28-89 28-28 89-28-89-89-28 89-28z" fill="#d7a955"/><circle cx="160" cy="160" r="15" fill="#fff0bf"/><text x="160" y="25" text-anchor="middle" fill="#f5e6bd" font-size="28" font-family="serif">N</text></g>
<path d="M95 702c160-122 253-136 392-97s203 36 360-84" stroke="#d7a955" stroke-width="5" stroke-dasharray="15 19" fill="none" opacity=".75"/><circle cx="95" cy="702" r="13" fill="#d7a955"/><circle cx="847" cy="521" r="13" fill="#d7a955"/>
</svg>