<svg xmlns="http://www.w3.org/2000/svg" viewBox="0 0 480 360" role="img" aria-label="Ilustracija grada podgorica">
<defs><linearGradient id="sky" x1="0" y1="0" x2="1" y2="1"><stop stop-color="#172d38"/><stop offset="1" stop-color="#07141b"/></linearGradient><radialGradient id="sun"><stop stop-color="#fff0b8"/><stop offset="1" stop-color="#ddb35d" stop-opacity=".1"/></radialGradient></defs>
<rect width="480" height="360" fill="url(#sky)"/><circle cx="382" cy="74" r="58" fill="url(#sun)" opacity=".92"/><path d="M0 68c82 26 122-21 205 7s141-18 275 4" stroke="#fff" stroke-opacity=".08" stroke-width="2" fill="none"/>
<path d="M0 360V287l83-42 74 22 57-64 55 42 65-77 63 69 83 47v76z" fill="#0d2029"/><path d="M0 314c81-27 163-17 240 5s155 22 240-7v48H0z" fill="#246f82" opacity=".58"/><path d="M72 282h336" stroke="#ddb35d" stroke-width="9"/><path d="M126 282c15-70 64-102 114-102s99 32 114 102" fill="none" stroke="#f0e4ca" stroke-width="17"/><path d="M126 282c15-70 64-102 114-102s99 32 114 102" fill="none" stroke="#6f7f80" stroke-width="6"/><rect x="35" y="224" width="46" height="58" fill="#bf8240"/><rect x="399" y="211" width="46" height="71" fill="#bf8240"/>
<path d="M22 332h436" stroke="#ddb35d" stroke-opacity=".45"/>
</svg>